<svg width="166" height="48" viewBox="0 0 166 48" fill="none" xmlns="http://www.w3.org/2000/svg">
<g filter="url(#filter0_d_15_2589)">
<path d="M9.51105 9.67813L10.0162 12.8746C10.9654 11.7795 12.2666 10.8768 13.9199 10.1665C15.6038 9.45616 17.3031 9.101 19.0176 9.101C24.2225 9.101 26.8249 13.0078 26.8249 20.8213C26.8249 25.024 26.1207 27.9689 24.7124 29.6559C23.3346 31.3134 21.1608 32.1421 18.191 32.1421C15.1293 32.1421 12.6034 31.4317 10.6133 30.0111C10.7663 31.5205 10.8123 33.0892 10.751 34.717V40H4V9.67813H9.51105ZM10.751 16.3374V26.3707C13.1392 26.9626 14.8537 27.2586 15.8947 27.2586C17.3949 27.2586 18.4206 26.8442 18.9717 26.0155C19.5534 25.1868 19.8443 23.4554 19.8443 20.8213C19.8443 18.2464 19.584 16.515 19.0635 15.6271C18.5431 14.7096 17.6245 14.2508 16.308 14.2508C14.8078 14.2508 12.9555 14.9464 10.751 16.3374Z" fill="#7B61FF"/>
<path d="M34.5907 0H37.6218C38.9383 0 39.5966 0.63633 39.5966 1.90899V4.30632C39.5966 5.57898 38.9383 6.21531 37.6218 6.21531H34.5907C33.2742 6.21531 32.6159 5.57898 32.6159 4.30632V1.90899C32.6159 0.63633 33.2742 0 34.5907 0ZM39.5047 31.5649H32.7537V9.67813H39.5047V31.5649Z" fill="#7B61FF"/>
<path d="M56.5823 22.3751H56.3067L50.9334 31.5649H43.9528L50.9334 20.333L44.4579 9.67813H51.3927L56.2148 18.1132H56.6741L61.4963 9.67813H68.431L61.9555 20.333L68.9362 31.5649H61.9555L56.5823 22.3751Z" fill="#7B61FF"/>
<path d="M87.671 22.8191H79.4962C79.7106 24.4173 80.2004 25.4976 80.9659 26.0599C81.7619 26.5927 83.0631 26.859 84.8695 26.859C87.2883 26.859 90.105 26.6963 93.3198 26.3707L93.9628 30.455C91.6053 31.5501 88.3139 32.0977 84.0888 32.0977C79.833 32.0977 76.802 31.2098 74.9956 29.434C73.1892 27.6582 72.286 24.7281 72.286 20.6437C72.286 16.3522 73.1585 13.3481 74.9037 11.6315C76.6795 9.91491 79.6493 9.0566 83.8132 9.0566C87.5791 9.0566 90.304 9.69293 91.988 10.9656C93.6719 12.2087 94.5292 14.1176 94.5598 16.6926C94.5598 18.7347 94.0087 20.2738 92.9065 21.3097C91.8349 22.3159 90.0897 22.8191 87.671 22.8191ZM79.3585 18.8679H85.788C86.6147 18.8679 87.1658 18.6755 87.4413 18.2908C87.7475 17.906 87.9006 17.3437 87.9006 16.6038C87.9006 15.5679 87.625 14.8576 87.0739 14.4728C86.5228 14.0585 85.5125 13.8513 84.0429 13.8513C82.2977 13.8513 81.1036 14.1916 80.4607 14.8724C79.8177 15.5235 79.4503 16.8553 79.3585 18.8679Z" fill="white"/>
<path d="M105.401 9.67813L105.86 12.8746C108.738 10.3293 111.616 9.0566 114.494 9.0566C117.556 9.0566 119.5 10.2405 120.327 12.6082C122.99 10.2405 125.746 9.0566 128.593 9.0566C130.644 9.0566 132.206 9.57455 133.278 10.6104C134.349 11.6463 134.885 13.1558 134.885 15.1387V31.5649H128.134V17.1809C128.134 16.2338 127.965 15.5679 127.629 15.1831C127.292 14.7984 126.664 14.606 125.746 14.606C125.011 14.606 124.307 14.7392 123.633 15.0055C122.96 15.2719 121.98 15.7899 120.694 16.5594V31.5649H114.173V17.1809C114.173 16.2338 113.974 15.5679 113.575 15.1831C113.208 14.7984 112.596 14.606 111.738 14.606C110.544 14.606 108.876 15.2423 106.733 16.515V31.5649H99.9816V9.67813H105.401Z" fill="white"/>
<path d="M141.931 14.5616L141.288 10.1221C145.36 9.41176 149.294 9.0566 153.09 9.0566C156.152 9.0566 158.402 9.66333 159.841 10.8768C161.28 12.0607 162 14.1324 162 17.0921V31.5649H156.627L155.938 28.2353C153.672 30.8102 150.886 32.0977 147.579 32.0977C145.406 32.0977 143.63 31.5501 142.252 30.455C140.874 29.3304 140.185 27.7765 140.185 25.7936V23.5738C140.185 21.8276 140.798 20.4661 142.022 19.4895C143.247 18.5128 144.946 18.0244 147.12 18.0244H155.203V17.0477C155.172 15.923 154.897 15.1683 154.376 14.7836C153.886 14.3988 152.922 14.2064 151.483 14.2064C148.972 14.2064 145.788 14.3248 141.931 14.5616ZM146.891 24.0621V24.9057C146.891 26.4151 147.778 27.1698 149.554 27.1698C151.391 27.1698 153.274 26.4595 155.203 25.0388V21.9756H149.095C147.625 22.0052 146.891 22.7007 146.891 24.0621Z" fill="white"/>
</g>
<defs>
<filter id="filter0_d_15_2589" x="0" y="0" width="166" height="48" filterUnits="userSpaceOnUse" color-interpolation-filters="sRGB">
<feFlood flood-opacity="0" result="BackgroundImageFix"/>
<feColorMatrix in="SourceAlpha" type="matrix" values="0 0 0 0 0 0 0 0 0 0 0 0 0 0 0 0 0 0 127 0" result="hardAlpha"/>
<feOffset dy="4"/>
<feGaussianBlur stdDeviation="2"/>
<feComposite in2="hardAlpha" operator="out"/>
<feColorMatrix type="matrix" values="0 0 0 0 0 0 0 0 0 0 0 0 0 0 0 0 0 0 0.25 0"/>
<feBlend mode="normal" in2="BackgroundImageFix" result="effect1_dropShadow_15_2589"/>
<feBlend mode="normal" in="SourceGraphic" in2="effect1_dropShadow_15_2589" result="shape"/>
</filter>
</defs>
</svg>
